
        <svg xmlns="http://www.w3.org/2000/svg" xmlns:xlink="http://www.w3.org/1999/xlink" version="1.1" width="3193.3946686548825" height="1230.0450854374742" viewBox="0 0 3193.3946686548825 1230.0450854374742">
			
			<g transform="scale(9.669733432744133) translate(10, 10)">
				<defs id="SvgjsDefs1104"/><g id="SvgjsG1105" featureKey="dsJevG-0" transform="matrix(0.24843275737942017,0,0,0.24843275737942017,-14.269233301531612,-8.945813932261835)" fill="#fff"><metadata xmlns="http://www.w3.org/2000/svg"><!--?xpacket begin="&;" id="W5M0MpCehiHzreSzNTczkc9d"?--><x:xmpmeta xmlns:x="adobe:ns:meta/" x:xmptk="Adobe XMP Core 5.3-c011 66.145661, 2012/02/06-14:56:27        "/><!--?xpacket end="w"?--></metadata><g xmlns="http://www.w3.org/2000/svg"><path d="M435.17,317.35c-3.287,0-6.238,1.426-8.287,3.685l-116.105-43.858c2.469-6.173,3.838-12.901,3.838-19.954   c0-3.084-0.272-6.101-0.77-9.041l41.753-12.034c4.901,10.298,15.399,17.415,27.563,17.415c16.857,0,30.516-13.662,30.516-30.517   s-13.658-30.517-30.516-30.517c-16.854,0-30.518,13.662-30.518,30.517c0,1.443,0.111,2.86,0.303,4.251l-41.574,11.938   C304.883,220.945,290,207.208,269,204.098V103.145c16-3.401,26.674-16.949,26.674-33.152c0-18.77-15.138-33.984-33.907-33.984   c-18.769,0-33.669,15.215-33.669,33.984c0,16.226,11.902,29.788,26.902,33.165v100.657c-15,1.71-27.457,9.161-36.068,20.02   l-42.147-33.265c0.812-1.891,1.192-3.973,1.192-6.159c0-8.647-7.044-15.657-15.692-15.657c-8.646,0-15.673,7.01-15.673,15.657   s7.001,15.656,15.649,15.656c3.094,0,5.968-0.91,8.399-2.46l42.871,33.95c-4.146,7.628-6.508,16.371-6.508,25.665   c0,4.772,0.628,9.397,1.795,13.803L99.943,314.091c-4.106-6.382-11.266-10.611-19.42-10.611c-12.751,0-23.086,10.336-23.086,23.087   s10.335,23.086,23.086,23.086c12.047,0,21.932-9.224,22.988-20.993l111.074-43.937c4.993,8.376,12.191,15.282,20.801,19.909   l-15.088,41.525c-0.52-0.053-1.049-0.08-1.581-0.08c-8.647,0-15.658,7.011-15.658,15.656c0,8.646,7.011,15.657,15.658,15.657   c8.649,0,15.655-7.011,15.655-15.657c0-4.797-2.163-9.086-5.561-11.958l15.076-41.493c5.325,1.767,11.013,2.736,16.931,2.736   c4.366,0,8.604-0.533,12.669-1.514l35.744,95.202c-9.619,6.003-16.024,16.675-16.024,28.847c0,18.771,15.215,33.984,33.983,33.984   c18.771,0,33.984-15.214,33.984-33.984c0-18.768-15.214-33.982-33.984-33.982c-1.328,0-2.639,0.084-3.928,0.232l-35.955-95.766   c7.887-4.472,14.533-10.872,19.293-18.567l117.451,44.365c0.639,5.577,5.368,9.911,11.117,9.911c6.187,0,11.2-5.016,11.2-11.199   C446.37,322.362,441.356,317.35,435.17,317.35z"/></g></g><g id="SvgjsG1106" featureKey="0oZDye-0" transform="matrix(1.91030441284719,0,0,1.91030441284719,116.04484779357641,22.19431905652985)" fill="#fff"><path d="M3.82 18.74 c0 0.5 0.38 0.64 1.44 0.74 l0 0.52 c-1.56 -0.06 -3.2 -0.06 -4.76 0 l0 -0.52 c1.06 -0.1 1.44 -0.24 1.44 -0.74 l0 -9.92 c0 -0.5 -0.38 -0.62 -1.44 -0.74 l0 -0.5 c1.56 0.06 3.2 0.06 4.76 0 l0 0.5 c-1.06 0.12 -1.44 0.24 -1.44 0.74 l0 9.92 z M15.14 18.74 c0 0.5 0.54 0.66 1.2 0.74 l0 0.52 c-1.4 -0.06 -2.8 -0.06 -4.18 0 l0 -0.52 c0.64 -0.08 1.16 -0.24 1.16 -0.74 l0 -5.52 c0 -1.58 -0.3 -2.62 -1.4 -2.62 c-1.48 0 -2.62 1.54 -2.84 1.9 l0 6.24 c0 0.5 0.54 0.66 1.18 0.74 l0 0.52 c-1.38 -0.06 -2.78 -0.06 -4.18 0 l0 -0.52 c0.66 -0.08 1.18 -0.24 1.18 -0.74 l0 -6.8 c0 -0.68 -0.42 -0.86 -1.2 -0.76 l0 -0.52 c1.54 -0.24 2.22 -0.9 2.6 -0.9 c0.28 0 0.46 0.18 0.42 0.5 l-0.18 1.7 c0.38 -0.58 1.64 -2.16 3.48 -2.16 c1.66 0 2.76 0.68 2.76 3.42 l0 5.52 z M25.98 19.38 c0.16 0.02 0.24 0.1 0.24 0.2 l0 0.42 c-3.06 -0.06 -6.12 -0.06 -9.18 0 l7.36 -11.86 l-4.68 0 c-0.8 0 -0.94 0.3 -1.76 1.96 l-0.56 0 l0.72 -2.72 l0.44 0 c0.48 0.14 0.76 0.2 1.7 0.2 l6.62 0 l-7.34 11.84 l3.2 0 c1.2 0 1.7 -0.58 2.16 -1.14 l1.08 -1.32 l0.86 0 c-0.48 0.76 -0.9 1.56 -1.24 2.36 z M33 19.38 c-0.32 0.36 -1.02 0.76 -1.82 0.76 c-1.34 0 -2.32 -0.66 -2.32 -2.52 l0 -7.04 l-0.9 0 c-0.1 0 -0.18 -0.06 -0.18 -0.18 l0 -0.24 c0 -0.1 0.08 -0.18 0.18 -0.18 c1.24 0 1.76 -0.86 2.02 -2.72 l0.72 0 l0 2.72 l2.16 0 c0.1 0 0.18 0.08 0.18 0.18 l0 0.24 c0 0.12 -0.08 0.18 -0.18 0.18 l-2.16 0 l0 7.42 c0 0.72 0.2 1.4 1.02 1.4 c0.64 0 1.08 -0.42 1.28 -0.72 l0 0.7 z M38.06 9.82 c2.34 0 4.52 1.84 4.52 5.08 c0 3.36 -2.18 5.3 -4.44 5.3 c-2.34 0 -4.52 -1.94 -4.52 -5.14 c0 -3.4 2.18 -5.24 4.44 -5.24 z M40.540000000000006 15.379999999999999 c0 -2.96 -1.08 -5.02 -2.76 -5.02 c-1.34 0 -2.16 1.3 -2.16 4.22 c0 2.96 1.08 5.04 2.78 5.04 c1.34 0 2.14 -1.3 2.14 -4.24 z M51.42000000000001 17.86 c0.14 0 0.26 0.14 0.16 0.36 c-0.5 1.12 -1.42 1.98 -3.16 1.98 c-2.66 0 -4.64 -2.02 -4.64 -5.26 c0 -3.12 1.94 -5.12 4.42 -5.12 c2.16 0 3.44 1.26 3.46 2.5 c0 0.42 -0.36 0.88 -0.92 0.88 c-0.52 0 -0.92 -0.36 -0.9 -0.8 c0.04 -1.02 -0.26 -2.04 -1.46 -2.04 c-1.62 0 -2.6 1.64 -2.6 4.4 c0 3.12 1.2 4.86 2.74 4.86 c1.34 0 2.06 -0.8 2.26 -1.58 c0.02 -0.12 0.1 -0.18 0.22 -0.18 l0.42 0 z M59.900000000000006 18.18 c0.74 0.96 1.66 1.52 2.28 1.58 l-0.56 0.52 c-1.24 0 -2.48 -0.34 -3.56 -1.7 l-2.48 -3.2 l0 3.36 c0 0.5 0.54 0.66 1.18 0.74 l0 0.52 c-1.38 -0.06 -2.78 -0.06 -4.18 0 l0 -0.52 c0.66 -0.08 1.18 -0.24 1.18 -0.74 l0 -10.4 c0 -0.66 -0.42 -0.84 -1.2 -0.76 l0 -0.5 c1.54 -0.26 2.22 -0.9 2.62 -0.9 c0.26 0 0.4 0.14 0.4 0.48 l0 7.88 c1.44 -1.18 2.36 -2.12 3.32 -3.38 c0.24 -0.32 0.12 -0.58 -0.6 -0.66 l0 -0.52 c1.1 0.06 2.2 0.06 3.32 0 l0 0.52 c-0.72 0.08 -1.06 0.14 -1.72 0.78 l-3.08 2.96 z M64.36000000000001 20.2 c-0.58 0 -1.08 -0.5 -1.08 -1.1 s0.5 -1.1 1.08 -1.1 c0.6 0 1.1 0.5 1.1 1.1 s-0.5 1.1 -1.1 1.1 z M74.60000000000001 17.86 c0.14 0 0.26 0.14 0.16 0.36 c-0.5 1.12 -1.42 1.98 -3.16 1.98 c-2.66 0 -4.64 -2.02 -4.64 -5.26 c0 -3.12 1.94 -5.12 4.42 -5.12 c2.16 0 3.44 1.26 3.46 2.5 c0 0.42 -0.36 0.88 -0.92 0.88 c-0.52 0 -0.92 -0.36 -0.9 -0.8 c0.04 -1.02 -0.26 -2.04 -1.46 -2.04 c-1.62 0 -2.6 1.64 -2.6 4.4 c0 3.12 1.2 4.86 2.74 4.86 c1.34 0 2.06 -0.8 2.26 -1.58 c0.02 -0.12 0.1 -0.18 0.22 -0.18 l0.42 0 z M80.48000000000002 9.82 c2.34 0 4.52 1.84 4.52 5.08 c0 3.36 -2.18 5.3 -4.44 5.3 c-2.34 0 -4.52 -1.94 -4.52 -5.14 c0 -3.4 2.18 -5.24 4.44 -5.24 z M82.96000000000001 15.379999999999999 c0 -2.96 -1.08 -5.02 -2.76 -5.02 c-1.34 0 -2.16 1.3 -2.16 4.22 c0 2.96 1.08 5.04 2.78 5.04 c1.34 0 2.14 -1.3 2.14 -4.24 z M100.48 18.74 c0 0.5 0.54 0.66 1.18 0.74 l0 0.52 c-1.38 -0.06 -2.78 -0.06 -4.18 0 l0 -0.52 c0.66 -0.08 1.18 -0.24 1.18 -0.74 l0 -5.76 c0 -1.42 -0.3 -2.38 -1.28 -2.38 c-1.32 0 -2.4 1.32 -2.68 1.92 l0 6.22 c0 0.5 0.54 0.66 1.18 0.74 l0 0.52 c-1.38 -0.06 -2.78 -0.06 -4.18 0 l0 -0.52 c0.66 -0.08 1.18 -0.24 1.18 -0.74 l0 -5.76 c0 -1.42 -0.3 -2.38 -1.3 -2.38 c-1.32 0 -2.38 1.32 -2.66 1.92 l0 6.22 c0 0.5 0.54 0.66 1.18 0.74 l0 0.52 c-1.38 -0.06 -2.78 -0.06 -4.18 0 l0 -0.52 c0.66 -0.08 1.18 -0.24 1.18 -0.74 l0 -6.8 c0 -0.68 -0.42 -0.86 -1.2 -0.76 l0 -0.52 c1.54 -0.24 2.22 -0.9 2.64 -0.9 c0.24 0 0.42 0.18 0.38 0.5 l-0.18 1.66 c0.42 -0.68 1.5 -2.12 3.48 -2.12 c1.24 0 2.14 0.74 2.36 2.12 c0.38 -0.7 1.46 -2.12 3.46 -2.12 c1.66 0 2.44 0.94 2.44 2.98 l0 5.96 z"/></g><g id="SvgjsG1107" featureKey="mo6dJk-0" transform="matrix(0.13428279896591858,0,0,0.13428279896591858,116.91943006929866,70.21847408696718)" fill="#fff"><path d="M5.02 18.12 q1.36 0 1.98 -0.46 t0.62 -1.3 q0 -0.5 -0.21 -0.86 t-0.6 -0.65 t-0.95 -0.54 t-1.28 -0.49 q-0.72 -0.26 -1.39 -0.57 t-1.18 -0.77 t-0.82 -1.1 t-0.31 -1.54 q0 -1.88 1.3 -2.95 t3.54 -1.07 q1.3 0 2.31 0.29 t1.59 0.63 l-0.78 2.04 q-0.68 -0.38 -1.49 -0.58 t-1.67 -0.2 q-1.02 0 -1.59 0.42 t-0.57 1.18 q0 0.46 0.19 0.79 t0.54 0.59 t0.82 0.48 t1.03 0.42 q0.98 0.36 1.75 0.73 t1.3 0.88 t0.81 1.2 t0.28 1.67 q0 1.88 -1.33 2.91 t-3.89 1.03 q-0.86 0 -1.57 -0.11 t-1.26 -0.27 t-0.95 -0.33 t-0.64 -0.31 l0.74 -2.06 q0.54 0.3 1.46 0.6 t2.22 0.3 z M30.14 6.140000000000001 l2.52 0 l0 13.86 l-2.52 0 l0 -13.86 z M56.68 6.140000000000001 q0.44 0.76 0.98 1.86 t1.1 2.31 t1.11 2.46 t1.01 2.31 q0.46 -1.06 1 -2.31 t1.1 -2.46 t1.1 -2.31 t0.98 -1.86 l2.28 0 q0.18 1.52 0.34 3.23 t0.29 3.5 t0.24 3.6 t0.19 3.53 l-2.48 0 q-0.08 -2.42 -0.19 -4.98 t-0.33 -4.96 q-0.22 0.46 -0.52 1.1 t-0.64 1.39 t-0.69 1.55 t-0.68 1.55 t-0.61 1.4 t-0.48 1.11 l-1.88 0 q-0.2 -0.46 -0.48 -1.12 t-0.61 -1.41 t-0.68 -1.55 t-0.69 -1.54 t-0.64 -1.39 t-0.52 -1.09 q-0.22 2.4 -0.33 4.96 t-0.19 4.98 l-2.48 0 q0.08 -1.72 0.19 -3.56 t0.24 -3.65 t0.29 -3.51 t0.34 -3.14 l2.34 0 z M92.94 6 q3.02 0 4.63 1.1 t1.61 3.44 q0 1.22 -0.43 2.09 t-1.25 1.42 t-2 0.81 t-2.7 0.26 l-1.26 0 l0 4.88 l-2.52 0 l0 -13.66 q0.88 -0.2 1.95 -0.27 t1.97 -0.07 z M93.12 8.18 q-0.96 0 -1.58 0.06 l0 4.72 l1.22 0 q1.82 0 2.8 -0.51 t0.98 -1.93 q0 -0.68 -0.26 -1.14 t-0.72 -0.72 t-1.09 -0.37 t-1.35 -0.11 z M127.92 17.82 l0 2.18 l-8.76 0 l0 -13.86 l2.52 0 l0 11.68 l6.24 0 z M147.52 6.140000000000001 l2.52 0 l0 13.86 l-2.52 0 l0 -13.86 z M171.04000000000002 20 l0 -13.86 l8.76 0 l0 2.14 l-6.24 0 l0 3.54 l5.54 0 l0 2.14 l-5.54 0 l0 6.04 l-2.52 0 z M204.4 12.280000000000001 q0.9 -1.5 1.76 -3.04 t1.56 -3.1 l2.8 0 q-1.12 2.12 -2.33 4.21 t-2.59 4.21 l0 5.44 l-2.52 0 l0 -5.4 q-1.38 -2.14 -2.6 -4.24 t-2.34 -4.22 l2.96 0 q0.7 1.56 1.54 3.1 t1.76 3.04 z M256.92 12.280000000000001 q0.9 -1.5 1.76 -3.04 t1.56 -3.1 l2.8 0 q-1.12 2.12 -2.33 4.21 t-2.59 4.21 l0 5.44 l-2.52 0 l0 -5.4 q-1.38 -2.14 -2.6 -4.24 t-2.34 -4.22 l2.96 0 q0.7 1.56 1.54 3.1 t1.76 3.04 z M284.50000000000006 13.059999999999999 q0 1.14 0.28 2.07 t0.81 1.58 t1.29 1.01 t1.72 0.36 q0.94 0 1.7 -0.36 t1.29 -1.01 t0.81 -1.58 t0.28 -2.07 t-0.28 -2.07 t-0.81 -1.58 t-1.29 -1.01 t-1.7 -0.36 q-0.96 0 -1.72 0.36 t-1.29 1.02 t-0.81 1.58 t-0.28 2.06 z M295.32000000000005 13.059999999999999 q0 1.78 -0.53 3.14 t-1.44 2.27 t-2.13 1.37 t-2.6 0.46 t-2.61 -0.46 t-2.14 -1.37 t-1.45 -2.27 t-0.54 -3.14 t0.54 -3.13 t1.47 -2.27 t2.15 -1.38 t2.58 -0.46 t2.58 0.46 t2.13 1.38 t1.45 2.27 t0.54 3.13 z M321.1 20.3 q-1.42 0 -2.44 -0.41 t-1.69 -1.15 t-0.99 -1.74 t-0.32 -2.2 l0 -8.66 l2.54 0 l0 8.42 q0 0.94 0.21 1.61 t0.6 1.09 t0.92 0.62 t1.19 0.2 t1.2 -0.2 t0.93 -0.62 t0.6 -1.09 t0.21 -1.61 l0 -8.42 l2.54 0 l0 8.66 q0 1.2 -0.33 2.2 t-1 1.74 t-1.71 1.15 t-2.46 0.41 z M351.32000000000005 6 q3 0 4.59 1.1 t1.59 3.36 q0 2.82 -2.78 3.82 q0.38 0.46 0.86 1.12 t0.98 1.43 t0.96 1.58 t0.82 1.59 l-2.82 0 q-0.38 -0.72 -0.82 -1.45 t-0.89 -1.42 t-0.89 -1.3 t-0.82 -1.09 q-0.28 0.02 -0.48 0.02 l-0.38 0 l-1.22 0 l0 5.24 l-2.52 0 l0 -13.66 q0.92 -0.2 1.96 -0.27 t1.86 -0.07 z M351.50000000000006 8.18 q-0.8 0 -1.48 0.06 l0 4.48 l1.1 0 q0.92 0 1.62 -0.1 t1.17 -0.36 t0.71 -0.7 t0.24 -1.12 q0 -0.64 -0.24 -1.08 t-0.69 -0.7 t-1.07 -0.37 t-1.36 -0.11 z M409.20000000000005 7.699999999999999 q0.32 1.08 0.68 2.25 t0.75 2.34 t0.78 2.3 t0.75 2.13 q0.3 -1.08 0.58 -2.35 t0.56 -2.64 t0.55 -2.79 t0.51 -2.8 l2.6 0 q-0.7 3.76 -1.56 7.23 t-1.92 6.63 l-2.4 0 q-1.56 -4.04 -3.02 -8.82 q-0.74 2.42 -1.5 4.6 t-1.52 4.22 l-2.4 0 q-1.08 -3.16 -1.93 -6.63 t-1.55 -7.23 l2.7 0 q0.24 1.36 0.51 2.78 t0.56 2.79 t0.59 2.65 t0.6 2.36 q0.38 -1.02 0.77 -2.15 t0.77 -2.3 t0.73 -2.33 t0.65 -2.24 l2.16 0 z M438.82000000000005 13.059999999999999 q0 1.14 0.28 2.07 t0.81 1.58 t1.29 1.01 t1.72 0.36 q0.94 0 1.7 -0.36 t1.29 -1.01 t0.81 -1.58 t0.28 -2.07 t-0.28 -2.07 t-0.81 -1.58 t-1.29 -1.01 t-1.7 -0.36 q-0.96 0 -1.72 0.36 t-1.29 1.02 t-0.81 1.58 t-0.28 2.06 z M449.64000000000004 13.059999999999999 q0 1.78 -0.53 3.14 t-1.44 2.27 t-2.13 1.37 t-2.6 0.46 t-2.61 -0.46 t-2.14 -1.37 t-1.45 -2.27 t-0.54 -3.14 t0.54 -3.13 t1.47 -2.27 t2.15 -1.38 t2.58 -0.46 t2.58 0.46 t2.13 1.38 t1.45 2.27 t0.54 3.13 z M473.90000000000003 6 q3 0 4.59 1.1 t1.59 3.36 q0 2.82 -2.78 3.82 q0.38 0.46 0.86 1.12 t0.98 1.43 t0.96 1.58 t0.82 1.59 l-2.82 0 q-0.38 -0.72 -0.82 -1.45 t-0.89 -1.42 t-0.89 -1.3 t-0.82 -1.09 q-0.28 0.02 -0.48 0.02 l-0.38 0 l-1.22 0 l0 5.24 l-2.52 0 l0 -13.66 q0.92 -0.2 1.96 -0.27 t1.86 -0.07 z M474.08000000000004 8.18 q-0.8 0 -1.48 0.06 l0 4.48 l1.1 0 q0.92 0 1.62 -0.1 t1.17 -0.36 t0.71 -0.7 t0.24 -1.12 q0 -0.64 -0.24 -1.08 t-0.69 -0.7 t-1.07 -0.37 t-1.36 -0.11 z M508.84000000000003 20 q-0.52 -0.8 -1.2 -1.68 t-1.43 -1.7 t-1.55 -1.56 t-1.58 -1.28 l0 6.22 l-2.52 0 l0 -13.86 l2.52 0 l0 5.72 q0.66 -0.66 1.38 -1.41 t1.43 -1.52 t1.35 -1.49 t1.16 -1.3 l3.02 0 q-0.66 0.76 -1.4 1.58 t-1.52 1.65 t-1.57 1.65 t-1.55 1.56 q0.84 0.64 1.71 1.49 t1.71 1.82 t1.61 2.02 t1.41 2.09 l-2.98 0 z M533.64 17.34 q0.04 0.34 0.04 0.5 l0 0.32 q0 1.24 -0.39 2.56 t-1.09 2.5 l-1.9 -0.52 q0.48 -1.16 0.65 -2.27 t0.17 -1.95 q0 -0.24 -0.01 -0.6 t-0.03 -0.54 l2.56 0 z M580 18.12 q1.36 0 1.98 -0.46 t0.62 -1.3 q0 -0.5 -0.21 -0.86 t-0.6 -0.65 t-0.95 -0.54 t-1.28 -0.49 q-0.72 -0.26 -1.39 -0.57 t-1.18 -0.77 t-0.82 -1.1 t-0.31 -1.54 q0 -1.88 1.3 -2.95 t3.54 -1.07 q1.3 0 2.31 0.29 t1.59 0.63 l-0.78 2.04 q-0.68 -0.38 -1.49 -0.58 t-1.67 -0.2 q-1.02 0 -1.59 0.42 t-0.57 1.18 q0 0.46 0.19 0.79 t0.54 0.59 t0.82 0.48 t1.03 0.42 q0.98 0.36 1.75 0.73 t1.3 0.88 t0.81 1.2 t0.28 1.67 q0 1.88 -1.33 2.91 t-3.89 1.03 q-0.86 0 -1.57 -0.11 t-1.26 -0.27 t-0.95 -0.33 t-0.64 -0.31 l0.74 -2.06 q0.54 0.3 1.46 0.6 t2.22 0.3 z M613.6600000000001 6.140000000000001 l2.52 0 l0 13.86 l-2.52 0 l0 -6.14 l-6.02 0 l0 6.14 l-2.52 0 l0 -13.86 l2.52 0 l0 5.54 l6.02 0 l0 -5.54 z M646.38 20 q-0.28 -0.82 -0.58 -1.62 t-0.58 -1.64 l-5.84 0 q-0.28 0.84 -0.57 1.65 t-0.57 1.61 l-2.62 0 q0.78 -2.22 1.48 -4.1 t1.37 -3.56 t1.33 -3.2 t1.36 -3 l2.38 0 q0.7 1.48 1.36 3 t1.33 3.2 t1.38 3.56 t1.49 4.1 l-2.72 0 z M642.3 8.82 q-0.46 1.06 -1.05 2.58 t-1.23 3.3 l4.56 0 q-0.64 -1.78 -1.24 -3.32 t-1.04 -2.56 z M672.36 6 q3 0 4.59 1.1 t1.59 3.36 q0 2.82 -2.78 3.82 q0.38 0.46 0.86 1.12 t0.98 1.43 t0.96 1.58 t0.82 1.59 l-2.82 0 q-0.38 -0.72 -0.82 -1.45 t-0.89 -1.42 t-0.89 -1.3 t-0.82 -1.09 q-0.28 0.02 -0.48 0.02 l-0.38 0 l-1.22 0 l0 5.24 l-2.52 0 l0 -13.66 q0.92 -0.2 1.96 -0.27 t1.86 -0.07 z M672.54 8.18 q-0.8 0 -1.48 0.06 l0 4.48 l1.1 0 q0.92 0 1.62 -0.1 t1.17 -0.36 t0.71 -0.7 t0.24 -1.12 q0 -0.64 -0.24 -1.08 t-0.69 -0.7 t-1.07 -0.37 t-1.36 -0.11 z M699.02 20 l0 -13.86 l8.9 0 l0 2.14 l-6.38 0 l0 3.42 l5.68 0 l0 2.1 l-5.68 0 l0 4.06 l6.86 0 l0 2.14 l-9.38 0 z M755.4200000000001 12.280000000000001 q0.9 -1.5 1.76 -3.04 t1.56 -3.1 l2.8 0 q-1.12 2.12 -2.33 4.21 t-2.59 4.21 l0 5.44 l-2.52 0 l0 -5.4 q-1.38 -2.14 -2.6 -4.24 t-2.34 -4.22 l2.96 0 q0.7 1.56 1.54 3.1 t1.76 3.04 z M783 13.059999999999999 q0 1.14 0.28 2.07 t0.81 1.58 t1.29 1.01 t1.72 0.36 q0.94 0 1.7 -0.36 t1.29 -1.01 t0.81 -1.58 t0.28 -2.07 t-0.28 -2.07 t-0.81 -1.58 t-1.29 -1.01 t-1.7 -0.36 q-0.96 0 -1.72 0.36 t-1.29 1.02 t-0.81 1.58 t-0.28 2.06 z M793.8199999999999 13.059999999999999 q0 1.78 -0.53 3.14 t-1.44 2.27 t-2.13 1.37 t-2.6 0.46 t-2.61 -0.46 t-2.14 -1.37 t-1.45 -2.27 t-0.54 -3.14 t0.54 -3.13 t1.47 -2.27 t2.15 -1.38 t2.58 -0.46 t2.58 0.46 t2.13 1.38 t1.45 2.27 t0.54 3.13 z M819.6 20.3 q-1.42 0 -2.44 -0.41 t-1.69 -1.15 t-0.99 -1.74 t-0.32 -2.2 l0 -8.66 l2.54 0 l0 8.42 q0 0.94 0.21 1.61 t0.6 1.09 t0.92 0.62 t1.19 0.2 t1.2 -0.2 t0.93 -0.62 t0.6 -1.09 t0.21 -1.61 l0 -8.42 l2.54 0 l0 8.66 q0 1.2 -0.33 2.2 t-1 1.74 t-1.71 1.15 t-2.46 0.41 z M849.82 6 q3 0 4.59 1.1 t1.59 3.36 q0 2.82 -2.78 3.82 q0.38 0.46 0.86 1.12 t0.98 1.43 t0.96 1.58 t0.82 1.59 l-2.82 0 q-0.38 -0.72 -0.82 -1.45 t-0.89 -1.42 t-0.89 -1.3 t-0.82 -1.09 q-0.28 0.02 -0.48 0.02 l-0.38 0 l-1.22 0 l0 5.24 l-2.52 0 l0 -13.66 q0.92 -0.2 1.96 -0.27 t1.86 -0.07 z M850 8.18 q-0.8 0 -1.48 0.06 l0 4.48 l1.1 0 q0.92 0 1.62 -0.1 t1.17 -0.36 t0.71 -0.7 t0.24 -1.12 q0 -0.64 -0.24 -1.08 t-0.69 -0.7 t-1.07 -0.37 t-1.36 -0.11 z M898.82 6.140000000000001 l2.52 0 l0 13.86 l-2.52 0 l0 -13.86 z M931.6800000000001 20 q-0.68 -1.14 -1.52 -2.45 t-1.74 -2.64 t-1.83 -2.58 t-1.77 -2.25 l0 9.92 l-2.48 0 l0 -13.86 l2.06 0 q0.8 0.84 1.72 1.99 t1.85 2.39 t1.8 2.49 t1.55 2.33 l0 -9.2 l2.5 0 l0 13.86 l-2.14 0 z M958.7800000000001 20 q-1.5 -3.24 -2.89 -6.78 t-2.59 -7.08 l2.78 0 q0.48 1.4 0.98 2.86 t1 2.87 t1 2.73 t0.98 2.42 q0.46 -1.1 0.96 -2.41 t1.01 -2.73 t1.01 -2.88 t0.96 -2.86 l2.7 0 q-1.22 3.54 -2.6 7.08 t-2.88 6.78 l-2.42 0 z M986.1600000000001 20 l0 -13.86 l8.9 0 l0 2.14 l-6.38 0 l0 3.42 l5.68 0 l0 2.1 l-5.68 0 l0 4.06 l6.86 0 l0 2.14 l-9.38 0 z M1024.9 20 q-0.68 -1.14 -1.52 -2.45 t-1.74 -2.64 t-1.83 -2.58 t-1.77 -2.25 l0 9.92 l-2.48 0 l0 -13.86 l2.06 0 q0.8 0.84 1.72 1.99 t1.85 2.39 t1.8 2.49 t1.55 2.33 l0 -9.2 l2.5 0 l0 13.86 l-2.14 0 z M1057.7 6.140000000000001 l0 2.18 l-4.26 0 l0 11.68 l-2.54 0 l0 -11.68 l-4.26 0 l0 -2.18 l11.06 0 z M1079.3600000000001 13.059999999999999 q0 1.14 0.28 2.07 t0.81 1.58 t1.29 1.01 t1.72 0.36 q0.94 0 1.7 -0.36 t1.29 -1.01 t0.81 -1.58 t0.28 -2.07 t-0.28 -2.07 t-0.81 -1.58 t-1.29 -1.01 t-1.7 -0.36 q-0.96 0 -1.72 0.36 t-1.29 1.02 t-0.81 1.58 t-0.28 2.06 z M1090.18 13.059999999999999 q0 1.78 -0.53 3.14 t-1.44 2.27 t-2.13 1.37 t-2.6 0.46 t-2.61 -0.46 t-2.14 -1.37 t-1.45 -2.27 t-0.54 -3.14 t0.54 -3.13 t1.47 -2.27 t2.15 -1.38 t2.58 -0.46 t2.58 0.46 t2.13 1.38 t1.45 2.27 t0.54 3.13 z M1114.44 6 q3 0 4.59 1.1 t1.59 3.36 q0 2.82 -2.78 3.82 q0.38 0.46 0.86 1.12 t0.98 1.43 t0.96 1.58 t0.82 1.59 l-2.82 0 q-0.38 -0.72 -0.82 -1.45 t-0.89 -1.42 t-0.89 -1.3 t-0.82 -1.09 q-0.28 0.02 -0.48 0.02 l-0.38 0 l-1.22 0 l0 5.24 l-2.52 0 l0 -13.66 q0.92 -0.2 1.96 -0.27 t1.86 -0.07 z M1114.6200000000001 8.18 q-0.8 0 -1.48 0.06 l0 4.48 l1.1 0 q0.92 0 1.62 -0.1 t1.17 -0.36 t0.71 -0.7 t0.24 -1.12 q0 -0.64 -0.24 -1.08 t-0.69 -0.7 t-1.07 -0.37 t-1.36 -0.11 z M1145.76 12.280000000000001 q0.9 -1.5 1.76 -3.04 t1.56 -3.1 l2.8 0 q-1.12 2.12 -2.33 4.21 t-2.59 4.21 l0 5.44 l-2.52 0 l0 -5.4 q-1.38 -2.14 -2.6 -4.24 t-2.34 -4.22 l2.96 0 q0.7 1.56 1.54 3.1 t1.76 3.04 z"/></g>
			</g>
		</svg>
	